<mxfile>
    <diagram id="bhVlvzgnEBwBXxkVF7tJ" name="Page-1">
        <mxGraphModel dx="500" dy="658" grid="1" gridSize="10" guides="1" tooltips="1" connect="1" arrows="1" fold="1" page="1" pageScale="1" pageWidth="827" pageHeight="1169" math="0" shadow="0">
            <root>
                <mxCell id="0"/>
                <mxCell id="1" parent="0"/>
                <mxCell id="2" value="&lt;b&gt;&lt;font color=&quot;#000000&quot;&gt;Conta&lt;/font&gt;&lt;/b&gt;" style="rounded=1;whiteSpace=wrap;html=1;gradientColor=#ffd966;fillColor=#fff2cc;strokeColor=#d6b656;" vertex="1" parent="1">
                    <mxGeometry x="150" y="30" width="120" height="60" as="geometry"/>
                </mxCell>
                <mxCell id="3" value="" style="endArrow=classic;html=1;exitX=0;exitY=1;exitDx=0;exitDy=0;" edge="1" parent="1" source="2">
                    <mxGeometry width="50" height="50" relative="1" as="geometry">
                        <mxPoint x="280" y="430" as="sourcePoint"/>
                        <mxPoint x="150" y="230" as="targetPoint"/>
                    </mxGeometry>
                </mxCell>
                <mxCell id="14" style="edgeStyle=orthogonalEdgeStyle;rounded=0;orthogonalLoop=1;jettySize=auto;html=1;" edge="1" parent="1" source="4">
                    <mxGeometry relative="1" as="geometry">
                        <mxPoint x="100" y="340" as="targetPoint"/>
                    </mxGeometry>
                </mxCell>
                <mxCell id="5" value="" style="rounded=0;whiteSpace=wrap;html=1;" vertex="1" parent="1">
                    <mxGeometry x="400" y="400" width="120" height="60" as="geometry"/>
                </mxCell>
                <mxCell id="6" value="&amp;nbsp;lista_contas" style="rounded=0;whiteSpace=wrap;html=1;align=left;verticalAlign=top;labelPosition=center;verticalLabelPosition=middle;fontSize=19;" vertex="1" parent="1">
                    <mxGeometry x="330" y="150" width="190" height="110" as="geometry"/>
                </mxCell>
                <mxCell id="7" value="" style="rounded=0;whiteSpace=wrap;html=1;" vertex="1" parent="1">
                    <mxGeometry x="250" y="450" width="120" height="60" as="geometry"/>
                </mxCell>
                <mxCell id="4" value="&lt;ol style=&quot;font-size: 17px;&quot;&gt;&lt;li style=&quot;font-size: 17px;&quot;&gt;&lt;font color=&quot;#000000&quot; style=&quot;font-size: 17px;&quot;&gt;nÃºmero: int&lt;/font&gt;&lt;/li&gt;&lt;li style=&quot;font-size: 17px;&quot;&gt;&lt;font color=&quot;#000000&quot; style=&quot;font-size: 17px;&quot;&gt;saldo: double&lt;/font&gt;&lt;/li&gt;&lt;li style=&quot;font-size: 17px;&quot;&gt;&lt;font color=&quot;#000000&quot; style=&quot;font-size: 17px;&quot;&gt;titular: String&lt;/font&gt;&lt;/li&gt;&lt;/ol&gt;&lt;div style=&quot;font-size: 17px;&quot;&gt;&lt;/div&gt;" style="rounded=0;whiteSpace=wrap;html=1;fillColor=#bac8d3;labelBackgroundColor=none;strokeColor=#23445d;align=left;verticalAlign=top;fontSize=17;" vertex="1" parent="1">
                    <mxGeometry x="40" y="150" width="230" height="240" as="geometry"/>
                </mxCell>
                <mxCell id="16" style="edgeStyle=orthogonalEdgeStyle;rounded=0;orthogonalLoop=1;jettySize=auto;html=1;" edge="1" parent="1" source="15" target="6">
                    <mxGeometry relative="1" as="geometry"/>
                </mxCell>
                <mxCell id="15" value="&lt;font color=&quot;#000000&quot;&gt;&lt;b&gt;BANCO&lt;/b&gt;&lt;/font&gt;" style="rounded=1;whiteSpace=wrap;html=1;gradientColor=#ffd966;fillColor=#fff2cc;strokeColor=#d6b656;" vertex="1" parent="1">
                    <mxGeometry x="380" y="30" width="120" height="60" as="geometry"/>
                </mxCell>
                <mxCell id="19" value="" style="endArrow=none;dashed=1;html=1;fontSize=17;" edge="1" parent="1" source="4">
                    <mxGeometry width="50" height="50" relative="1" as="geometry">
                        <mxPoint x="280" y="330" as="sourcePoint"/>
                        <mxPoint x="270" y="280" as="targetPoint"/>
                    </mxGeometry>
                </mxCell>
            </root>
        </mxGraphModel>
    </diagram>
</mxfile>